<?xml version="1.0" encoding="UTF-8"?><svg id="n" xmlns="http://www.w3.org/2000/svg" viewBox="0 0 320 132"><defs><style>.o,.p{fill:#f2f0ef;}.p{fill-rule:evenodd;}</style></defs><path class="p" d="M189.42,75.43l8.97-12.1h3.83l-2.42,16.64-11.19,14.62,4.03,2.92-35.9,34.49,.5-2.82,32.37-46.59-7.06-2.92-25.01,18.25-.81-1.21,1.81-40.64,19.87-8.07-1.41,9.08-15.53,7.06-2.82,29.65,.61,.4,21.88-18.45-1.21-10.08,3.13-6.05,1.31-12.5-2.02-1.51-1.21,.2-24.2-31.16,24.81,26.82-2.12-15.03-15.53-12-3.13-10.18h-9.38l-3.13,10.18-15.53,12-2.12,15.03,24.81-26.82-24.2,31.16-1.21-.2-2.02,1.51,1.31,12.5,3.13,6.05-1.21,10.08,21.88,18.45,.61-.4-2.82-29.65-15.53-7.06-1.41-9.08,19.87,8.07,1.82,40.64-.81,1.21-25.01-18.25-7.06,2.92,32.37,46.59,.5,2.82-35.9-34.49,4.03-2.92-11.19-14.62-2.42-16.64h3.83l8.97,12.1h2.52l.71-7.76-2.12-6.05-2.32-16.03,2.72-1.21,3.53-21.28,16.24-12.4,4.84-10.69h14.02l4.84,10.69,16.24,12.4,3.53,21.28,2.72,1.21-2.32,16.03-2.12,6.05,.71,7.76h2.52Z"/><path class="o" d="M95.57,23.65h-25.49v1.32h2.38c2.11-.13,4.09,.66,5.54,2.24,1.13,1.03,1.94,2.46,2.24,4.04v51.38L16.35,21.67h-1.32l.79,4.49c.66,3.7,.92,7.52,.79,11.35V103.38c0,1.98-.79,3.96-2.24,5.41-1.45,1.45-3.43,2.24-5.54,2.24h-2.38v1.32h27.85v.13h10.56v-1.32h-2.38c-4.36-.13-7.79-3.56-7.79-7.79h-.02l-.09-50.2,64.13,60.89v-.13s1.05,0,1.05,0l-.4-1.98c-.26-1.19-.53-3.17-.79-5.68-.26-2.51-.4-5.28-.4-8.45V27.38c.05-.05,.1-.11,.15-.17,1.32-1.45,3.3-2.24,5.41-2.24h2.24v-1.45h-10.43v.13Z"/><path class="o" d="M276.49,71.04h1.98c4.36,0,6.47,1.85,6.47,5.68l-.13,19.4c-.79,2.64-2.51,5.02-4.62,6.86-2.38,1.98-5.02,3.43-7.79,4.36-2.9,.92-5.94,1.45-8.98,1.45-5.68,0-11.09-1.72-15.71-5.02-4.62-3.7-8.05-8.45-9.9-13.99-2.38-6.86-3.43-13.99-3.3-21.25-.13-7.52,1.06-15.05,3.56-22.18,2.11-5.68,5.81-10.69,10.82-14.26,5.15-3.43,11.22-5.15,17.42-5.02,4.36,0,8.58,.66,12.67,2.24,4.22,1.58,7.79,4.09,10.69,7.39,3.3,3.96,5.68,8.71,6.86,13.73h1.19l-.26-21.65c-2.9-1.58-6.07-2.77-9.24-3.56-3.96-1.06-8.05-1.85-12.14-2.38-4.49-.66-9.11-1.06-13.6-1.06-8.98-.26-17.95,1.72-26,5.68-7.13,3.56-12.94,8.98-16.9,15.84-3.83,6.73-5.81,14.92-5.81,24.42-.26,8.58,1.85,17.03,5.94,24.55,3.96,6.86,9.77,12.41,16.76,16.1,7.92,3.83,16.63,5.81,25.34,5.54,6.34,.13,12.54-.66,18.61-2.38,5.02-1.45,9.77-3.56,14.26-6.34,3.43-2.11,6.47-4.62,9.11-7.66v-20.86c-.13-3.83,1.98-5.68,6.47-5.68h1.85v-1.32h-35.64v1.32Z"/></svg>